<svg xmlns="http://www.w3.org/2000/svg" width="23.263" height="20.044" viewBox="0 0 23.263 20.044">
  <g id="noun-dashboard-1211026" transform="translate(-148.664 -85.737)">
    <path id="Path_2857" data-name="Path 2857" d="M277.329,206.467a.214.214,0,0,0-.312.281c1.075,1.8,2.892,4.845,2.985,4.948a1.3,1.3,0,1,0,1.935-1.741c-.093-.1-2.927-2.23-4.608-3.488Z" transform="translate(-120.549 -113.302)" fill="#fff" stroke="#feffff" stroke-width="0.75"/>
    <path id="Path_2858" data-name="Path 2858" d="M168.322,105.247c.012-.01.028-.015.039-.027A11.256,11.256,0,0,0,160.3,86.112h-.038a11.257,11.257,0,0,0-7.989,19.149.449.449,0,0,0,.218.116.465.465,0,0,0,.159.03.458.458,0,0,0,.311-.122l1.211-1.113a.46.46,0,0,0-.623-.677l-.9.825a10.261,10.261,0,0,1-2.679-6.554h1.294a.46.46,0,0,0,0-.92H150a10.2,10.2,0,0,1,1.221-4.414,10.38,10.38,0,0,1,1.667-2.256l.912.912a.46.46,0,0,0,.651-.651l-.892-.892a10.287,10.287,0,0,1,6.244-2.5V88.31a.46.46,0,0,0,.92,0V87.043a10.228,10.228,0,0,1,6.359,2.587l-.911.911a.46.46,0,0,0,.651.651l.92-.92a10.234,10.234,0,0,1,2.783,6.573h-1.267a.46.46,0,0,0,0,.92h1.369a10.27,10.27,0,0,1-2.634,6.5l-.9-.783a.46.46,0,1,0-.6.693l1.229,1.072a.458.458,0,0,0,.492.072l.008,0a.413.413,0,0,0,.106-.071Z" transform="translate(0 0)" fill="#fff" stroke="#feffff" stroke-width="0.75"/>
  </g>
</svg>
