<svg xmlns="http://www.w3.org/2000/svg" width="34.132" height="34.132" viewBox="0 0 34.132 34.132">
  <g id="Group_2921" data-name="Group 2921" transform="translate(-166.563 -493.373)">
    <ellipse id="Ellipse_42" data-name="Ellipse 42" cx="17.066" cy="17.066" rx="17.066" ry="17.066" transform="translate(166.563 493.373)" fill="#f9c13f" opacity="0.17"/>
    <g id="noun-caution-2904934" transform="translate(173.432 500.492)">
      <path id="Path_2975" data-name="Path 2975" d="M15.118.944l8.065,12.15a2.177,2.177,0,0,1-1.833,3.352H5.272a2.141,2.141,0,0,1-1.781-3.352L11.5.944a2.2,2.2,0,0,1,3.614,0ZM13.337,12.623a.861.861,0,0,1,.838.838.9.9,0,0,1-.838.838.861.861,0,0,1-.838-.838A.827.827,0,0,1,13.337,12.623Zm-1-7.7.367,5.918a.633.633,0,1,0,1.257,0l.314-5.918a.594.594,0,0,0-.628-.681h-.628a.66.66,0,0,0-.681.681Z" transform="translate(-3.125 -0.001)" fill="#f9c13f" fill-rule="evenodd"/>
    </g>
  </g>
</svg>
