<svg xmlns="http://www.w3.org/2000/svg" width="25.878" height="25.878" viewBox="0 0 25.878 25.878">
  <g id="Group_2874" data-name="Group 2874" transform="translate(-426.061 -356.061)">
    <path id="Path_2873" data-name="Path 2873" d="M24.859,7.893a12.919,12.919,0,0,0-6.874-6.874A12.6,12.6,0,0,0,12.939,0,12.52,12.52,0,0,0,7.925,1.019,13.269,13.269,0,0,0,3.8,3.785,12.93,12.93,0,0,0,1.019,7.893,12.6,12.6,0,0,0,0,12.939a12.52,12.52,0,0,0,1.019,5.014,13.036,13.036,0,0,0,6.906,6.906,12.52,12.52,0,0,0,5.014,1.019,12.6,12.6,0,0,0,5.046-1.019,12.93,12.93,0,0,0,4.108-2.782,13.269,13.269,0,0,0,2.766-4.124,12.52,12.52,0,0,0,1.019-5.014,12.6,12.6,0,0,0-1.019-5.046" transform="translate(426.061 356.061)" fill="#0aa405" opacity="0.22"/>
    <path id="Path_2874" data-name="Path 2874" d="M14.137,23.31l9.154-9.154L21.8,12.7l-7.666,7.666-3.882-3.882L8.8,17.94Z" transform="translate(422.954 351.577)" fill="#0aa405"/>
  </g>
</svg>
