<svg xmlns="http://www.w3.org/2000/svg" width="13.045" height="13.412" viewBox="0 0 13.045 13.412">
  <path id="Path_2868" data-name="Path 2868" d="M87.982,13.8a.4.4,0,1,1,.63-.5L90.6,15.783V7.518a.4.4,0,1,1,.807,0v8.265L93.389,13.3a.4.4,0,1,1,.63.5l-2.7,3.382a.4.4,0,0,1-.63,0Zm8.888,2.571a.4.4,0,0,0-.4.4v1.55a.888.888,0,0,1-.887.887H86.422a.888.888,0,0,1-.887-.887v-1.55a.4.4,0,0,0-.807,0v1.55a1.7,1.7,0,0,0,1.694,1.694H95.58a1.7,1.7,0,0,0,1.694-1.694v-1.55a.4.4,0,0,0-.4-.4Z" transform="translate(-84.478 -6.858)" fill="#2b8cc6" stroke="#2b8cc6" stroke-width="0.5"/>
</svg>
