<svg xmlns="http://www.w3.org/2000/svg" xmlns:xlink="http://www.w3.org/1999/xlink" width="258.387" height="86.337" viewBox="0 0 258.387 86.337">
  <defs>
    <clipPath id="clip-path">
      <rect id="Rectangle_2267" data-name="Rectangle 2267" width="9.836" height="7.118" fill="none"/>
    </clipPath>
    <clipPath id="clip-path-2">
      <rect id="Rectangle_2269" data-name="Rectangle 2269" width="25.642" height="33.541" fill="none"/>
    </clipPath>
  </defs>
  <g id="Group_2875" data-name="Group 2875" transform="translate(-59.089 -391.592)">
    <g id="Group_2869" data-name="Group 2869" transform="translate(68.501 -143.93)">
      <path id="Path_2957" data-name="Path 2957" d="M182.919,248.012c0,7.181-13.43,13-29.995,13s-29.995-5.816-29.995-13,13.43-13,29.995-13,29.995,5.816,29.995,13" transform="translate(63.914 359.85)" fill="#cfd3d6"/>
      <path id="Path_2958" data-name="Path 2958" d="M184.248,238.578c0,8.285-14.388,15-32.137,15s-32.137-6.712-32.137-15,14.388-15,32.137-15,32.137,6.712,32.137,15" transform="translate(64.728 362.998)" fill="#dfe3e6"/>
      <rect id="Rectangle_2253" data-name="Rectangle 2253" width="64.274" height="12.855" transform="translate(184.702 588.721)" fill="#dfe3e6"/>
      <path id="Path_2959" data-name="Path 2959" d="M184.248,220.838c0,8.285-14.388,15-32.137,15s-32.137-6.712-32.137-15,14.388-15,32.137-15,32.137,6.712,32.137,15" transform="translate(64.728 367.883)" fill="#eff4f7"/>
      <path id="Path_2960" data-name="Path 2960" d="M182.919,218.445c0,7.18-13.43,13-29.995,13s-29.995-5.817-29.995-13,13.43-13,29.995-13,29.995,5.816,29.995,13" transform="translate(63.914 367.991)" fill="#cfd3d6"/>
      <path id="Path_2961" data-name="Path 2961" d="M184.248,209.012c0,8.285-14.388,15-32.137,15s-32.137-6.712-32.137-15,14.388-15,32.137-15,32.137,6.712,32.137,15" transform="translate(64.728 371.14)" fill="#dfe3e6"/>
      <rect id="Rectangle_2254" data-name="Rectangle 2254" width="64.274" height="12.855" transform="translate(184.702 567.297)" fill="#dfe3e6"/>
      <path id="Path_2962" data-name="Path 2962" d="M184.248,191.272c0,8.285-14.388,15-32.137,15s-32.137-6.712-32.137-15,14.388-15,32.137-15,32.137,6.712,32.137,15" transform="translate(64.728 376.025)" fill="#eff4f7"/>
      <path id="Path_2963" data-name="Path 2963" d="M182.919,188.879c0,7.181-13.43,13-29.995,13s-29.995-5.816-29.995-13,13.43-13,29.995-13,29.995,5.816,29.995,13" transform="translate(63.914 376.133)" fill="#cfd3d6"/>
      <path id="Path_2964" data-name="Path 2964" d="M184.248,179.445c0,8.285-14.388,15-32.137,15s-32.137-6.712-32.137-15,14.388-15,32.137-15,32.137,6.712,32.137,15" transform="translate(64.728 379.282)" fill="#dfe3e6"/>
      <rect id="Rectangle_2255" data-name="Rectangle 2255" width="64.274" height="6.427" transform="translate(184.702 552.299)" fill="#dfe3e6"/>
      <path id="Path_2965" data-name="Path 2965" d="M184.248,155.277c0,4.735-14.388,8.57-32.137,8.57s-32.137-3.836-32.137-8.57,14.388-8.57,32.137-8.57,32.137,3.836,32.137,8.57" transform="translate(64.728 397.022)" fill="#eff4f7"/>
      <line id="Line_40" data-name="Line 40" x2="4.285" transform="translate(206.126 567.297)" fill="none" stroke="#888" stroke-linecap="round" stroke-width="1"/>
      <line id="Line_41" data-name="Line 41" x2="4.285" transform="translate(214.696 567.297)" fill="none" stroke="#888" stroke-linecap="round" stroke-width="1"/>
      <line id="Line_42" data-name="Line 42" x2="4.285" transform="translate(223.266 567.297)" fill="none" stroke="#888" stroke-linecap="round" stroke-width="1"/>
      <line id="Line_43" data-name="Line 43" x2="4.285" transform="translate(206.126 588.721)" fill="none" stroke="#888" stroke-linecap="round" stroke-width="1"/>
      <line id="Line_44" data-name="Line 44" x2="4.285" transform="translate(214.696 588.721)" fill="none" stroke="#888" stroke-linecap="round" stroke-width="1"/>
      <line id="Line_45" data-name="Line 45" x2="4.285" transform="translate(223.266 588.721)" fill="none" stroke="#888" stroke-linecap="round" stroke-width="1"/>
      <line id="Line_46" data-name="Line 46" x2="4.285" transform="translate(206.126 610.146)" fill="none" stroke="#888" stroke-linecap="round" stroke-width="1"/>
      <line id="Line_47" data-name="Line 47" x2="4.285" transform="translate(214.696 610.146)" fill="none" stroke="#888" stroke-linecap="round" stroke-width="1"/>
      <line id="Line_48" data-name="Line 48" x2="4.285" transform="translate(223.266 610.146)" fill="none" stroke="#888" stroke-linecap="round" stroke-width="1"/>
    </g>
    <line id="Line_67" data-name="Line 67" x1="6.293" transform="translate(150.456 436.438)" fill="none" stroke="#ccc" stroke-linecap="round" stroke-width="1"/>
    <line id="Line_72" data-name="Line 72" x1="6.293" transform="translate(235.678 436.438)" fill="none" stroke="#ccc" stroke-linecap="round" stroke-width="1"/>
    <line id="Line_68" data-name="Line 68" x1="6.293" transform="translate(137.87 436.438)" fill="none" stroke="#ccc" stroke-linecap="round" stroke-width="1"/>
    <line id="Line_71" data-name="Line 71" x1="6.293" transform="translate(223.092 436.438)" fill="none" stroke="#ccc" stroke-linecap="round" stroke-width="1"/>
    <line id="Line_69" data-name="Line 69" x1="6.293" transform="translate(125.285 436.438)" fill="none" stroke="#ccc" stroke-linecap="round" stroke-width="1"/>
    <line id="Line_70" data-name="Line 70" x1="6.293" transform="translate(210.507 436.438)" fill="none" stroke="#ccc" stroke-linecap="round" stroke-width="1"/>
    <g id="Group_2884" data-name="Group 2884" transform="translate(59.089 391.592)">
      <g id="Group_2894" data-name="Group 2894" transform="translate(0)">
        <g id="Group_2891" data-name="Group 2891">
          <g id="Group_2895" data-name="Group 2895">
            <path id="Path_3003" data-name="Path 3003" d="M50.887,4.425C48.555,1.324,47.666,0,45.561,0H9.187C7.085,0,6.2,1.324,3.861,4.425,1.1,8.089,0,9.424,0,10.472c0,.5,15.009.188,27.974-.347,12.944.535,26.774.843,26.774.347,0-1.049-1.1-2.383-3.861-6.047" transform="translate(0)" fill="#eff4f7"/>
            <g id="Group_2886" data-name="Group 2886" transform="translate(2.092 0.881)" opacity="0.1">
              <g id="Group_2885" data-name="Group 2885">
                <g id="Group_2884-2" data-name="Group 2884" clip-path="url(#clip-path)">
                  <path id="Path_3004" data-name="Path 3004" d="M14.457,8.836C13,8.566,9.544,8.407,9.092,6.414a6.049,6.049,0,0,1,.634-4.228C9.161,2.9,8.552,3.877,7.719,5.195,6.527,7.084,5.711,8.348,5.192,9.28c0,0,12.633.18,9.265-.444" transform="translate(-5.192 -2.186)" fill="#fff"/>
                </g>
              </g>
            </g>
            <path id="Path_3005" data-name="Path 3005" d="M58.664,4.425C56.283,1.324,55.375,0,53.226,0H16.082a3.8,3.8,0,0,0-2.917,1.339H49.393c2.148,0,3.056,1.324,5.437,4.425a46.218,46.218,0,0,1,3.607,4.957c2.59-.009,4.17-.084,4.17-.249,0-1.049-1.124-2.383-3.943-6.047" transform="translate(-7.859)" fill="#cfd3d6"/>
            <path id="Rectangle_2268" data-name="Rectangle 2268" d="M5.316,0H49.432a5.316,5.316,0,0,1,5.316,5.316V72.452a5.314,5.314,0,0,1-5.314,5.314H5.317A5.317,5.317,0,0,1,0,72.449V5.316A5.316,5.316,0,0,1,5.316,0Z" transform="translate(0 8.571)" fill="#dfe3e6"/>
            <g id="Group_2889" data-name="Group 2889" transform="translate(1.251 10.008)" opacity="0.1">
              <g id="Group_2888" data-name="Group 2888">
                <g id="Group_2887" data-name="Group 2887" clip-path="url(#clip-path-2)">
                  <path id="Path_3006" data-name="Path 3006" d="M5.756,30.725A2.143,2.143,0,0,1,7.9,28.583s21.985-3.75,20.8-3.75H5.247A2.141,2.141,0,0,0,3.1,26.975V58.339c0,1.182,2.651-27.613,2.651-27.613" transform="translate(-3.105 -24.833)" fill="#fff"/>
                </g>
              </g>
            </g>
            <path id="Path_3007" data-name="Path 3007" d="M52.191,21.267H51.128v71.49A2.377,2.377,0,0,1,48.572,94.9H0v1.99a2.379,2.379,0,0,0,2.555,2.142H52.191a2.377,2.377,0,0,0,2.557-2.142V23.409a2.377,2.377,0,0,0-2.557-2.142" transform="translate(0 -12.696)" fill="#cfd3d6"/>
            <path id="Rectangle_2270" data-name="Rectangle 2270" d="M1.306,0H44.432a1.3,1.3,0,0,1,1.3,1.3v0a1.3,1.3,0,0,1-1.3,1.3H1.306A1.306,1.306,0,0,1,0,1.306v0A1.306,1.306,0,0,1,1.306,0Z" transform="translate(4.507 15.829)" fill="#cfd3d6"/>
            <path id="Rectangle_2271" data-name="Rectangle 2271" d="M1.307,0H44.431a1.305,1.305,0,0,1,1.305,1.305v0a1.305,1.305,0,0,1-1.305,1.305H1.305A1.305,1.305,0,0,1,0,1.307v0A1.307,1.307,0,0,1,1.307,0Z" transform="translate(4.507 20.65)" fill="#cfd3d6"/>
            <path id="Rectangle_2272" data-name="Rectangle 2272" d="M1.307,0H44.43a1.307,1.307,0,0,1,1.307,1.307v0A1.307,1.307,0,0,1,44.43,2.613H1.306A1.306,1.306,0,0,1,0,1.307v0A1.307,1.307,0,0,1,1.307,0Z" transform="translate(4.507 25.471)" fill="#cfd3d6"/>
            <path id="Path_3014" data-name="Path 3014" d="M57.543,147.139a.617.617,0,0,1-.674.536H15.075a.55.55,0,1,1,0-1.071H56.869a.619.619,0,0,1,.674.536" transform="translate(-8.597 -87.52)" fill="#cfd3d6"/>
            <path id="Path_3015" data-name="Path 3015" d="M57.543,147.139a.617.617,0,0,1-.674.536H15.075a.55.55,0,1,1,0-1.071H56.869A.619.619,0,0,1,57.543,147.139Z" transform="translate(-8.597 -87.52)" fill="#cfd3d6"/>
            <path id="Path_3016" data-name="Path 3016" d="M57.543,153.452a.617.617,0,0,1-.674.536H15.075a.55.55,0,1,1,0-1.071H56.869a.618.618,0,0,1,.674.535" transform="translate(-8.597 -91.289)" fill="#cfd3d6"/>
            <path id="Path_3018" data-name="Path 3018" d="M57.543,159.766a.617.617,0,0,1-.674.536H15.075a.55.55,0,1,1,0-1.071H56.869a.619.619,0,0,1,.674.536" transform="translate(-8.597 -95.058)" fill="#cfd3d6"/>
            <path id="Path_3019" data-name="Path 3019" d="M57.543,159.766a.617.617,0,0,1-.674.536H15.075a.55.55,0,1,1,0-1.071H56.869A.619.619,0,0,1,57.543,159.766Z" transform="translate(-8.597 -95.058)" fill="#cfd3d6"/>
            <path id="Path_3021" data-name="Path 3021" d="M57.543,166.078a.617.617,0,0,1-.674.536H15.075a.55.55,0,1,1,0-1.072H56.869A.618.618,0,0,1,57.543,166.078Z" transform="translate(-8.597 -98.826)" fill="#cfd3d6"/>
            <path id="Path_3022" data-name="Path 3022" d="M57.543,172.392a.616.616,0,0,1-.674.536H15.075a.549.549,0,1,1,0-1.07H56.869a.618.618,0,0,1,.674.535" transform="translate(-8.597 -102.596)" fill="#cfd3d6"/>
            <path id="Path_3023" data-name="Path 3023" d="M57.543,172.392a.616.616,0,0,1-.674.536H15.075a.549.549,0,1,1,0-1.07H56.869A.618.618,0,0,1,57.543,172.392Z" transform="translate(-8.597 -102.596)" fill="#cfd3d6"/>
            <path id="Path_3024" data-name="Path 3024" d="M57.543,178.7a.617.617,0,0,1-.674.536H15.075a.55.55,0,1,1,0-1.072H56.869a.619.619,0,0,1,.674.536" transform="translate(-8.597 -106.364)" fill="#cfd3d6"/>
            <path id="Path_3025" data-name="Path 3025" d="M57.543,178.7a.617.617,0,0,1-.674.536H15.075a.55.55,0,1,1,0-1.072H56.869A.619.619,0,0,1,57.543,178.7Z" transform="translate(-8.597 -106.364)" fill="#cfd3d6"/>
            <path id="Path_3026" data-name="Path 3026" d="M57.543,185.02a.617.617,0,0,1-.674.535H15.075a.55.55,0,1,1,0-1.07H56.869a.618.618,0,0,1,.674.536" transform="translate(-8.597 -110.134)" fill="#cfd3d6"/>
            <path id="Path_3028" data-name="Path 3028" d="M57.543,191.332a.617.617,0,0,1-.674.536H15.075a.55.55,0,1,1,0-1.071H56.869a.619.619,0,0,1,.674.536" transform="translate(-8.597 -113.903)" fill="#cfd3d6"/>
            <path id="Path_3030" data-name="Path 3030" d="M57.543,197.645a.617.617,0,0,1-.674.536H15.075a.55.55,0,1,1,0-1.071H56.869a.619.619,0,0,1,.674.536" transform="translate(-8.597 -117.671)" fill="#7191a6"/>
            <path id="Path_3031" data-name="Path 3031" d="M57.543,197.645a.617.617,0,0,1-.674.536H15.075a.55.55,0,1,1,0-1.071H56.869A.619.619,0,0,1,57.543,197.645Z" transform="translate(-8.597 -117.671)" fill="#cfd3d6"/>
            <g id="Group_2899" data-name="Group 2899" transform="translate(37.638 37.456)">
              <g id="Group_2897" data-name="Group 2897" transform="translate(8.633)">
                <rect id="Rectangle_2273" data-name="Rectangle 2273" width="2.678" height="4.552" fill="#eff4f7"/>
                <rect id="Rectangle_2274" data-name="Rectangle 2274" width="2.678" height="4.552" fill="none" stroke="#cfd3d6" stroke-width="0.665"/>
              </g>
              <g id="Group_2896" data-name="Group 2896" transform="translate(4.317)">
                <rect id="Rectangle_2275" data-name="Rectangle 2275" width="2.679" height="4.552" fill="#eff4f7"/>
                <rect id="Rectangle_2276" data-name="Rectangle 2276" width="2.679" height="4.552" fill="none" stroke="#cfd3d6" stroke-width="0.665"/>
              </g>
              <g id="Group_2898" data-name="Group 2898">
                <rect id="Rectangle_2277" data-name="Rectangle 2277" width="2.678" height="4.552" fill="#eff4f7"/>
                <rect id="Rectangle_2278" data-name="Rectangle 2278" width="2.678" height="4.552" fill="none" stroke="#cfd3d6" stroke-width="0.665"/>
              </g>
            </g>
            <path id="Rectangle_2279" data-name="Rectangle 2279" d="M0,0H14.281a1.306,1.306,0,0,1,1.306,1.306v0a1.306,1.306,0,0,1-1.306,1.306H0a0,0,0,0,1,0,0V0A0,0,0,0,1,0,0Z" transform="translate(34.655 15.829)" fill="#0aa405"/>
            <path id="Rectangle_2280" data-name="Rectangle 2280" d="M0,0H14.281a1.306,1.306,0,0,1,1.306,1.306v0a1.306,1.306,0,0,1-1.306,1.306H0a0,0,0,0,1,0,0V0A0,0,0,0,1,0,0Z" transform="translate(34.655 20.65)" fill="#0aa405"/>
            <path id="Rectangle_2281" data-name="Rectangle 2281" d="M0,0H14.28a1.307,1.307,0,0,1,1.307,1.307v0A1.307,1.307,0,0,1,14.28,2.613H0a0,0,0,0,1,0,0V0A0,0,0,0,1,0,0Z" transform="translate(34.655 25.471)" fill="#0aa405"/>
          </g>
        </g>
      </g>
    </g>
  </g>
</svg>
