<svg xmlns="http://www.w3.org/2000/svg" width="41.395" height="41.395" viewBox="0 0 41.395 41.395">
  <g id="Group_2834" data-name="Group 2834" transform="translate(-1110.532 -642.532)">
    <g id="Group_2831" data-name="Group 2831" transform="translate(1110.532 642.532)">
      <g id="Group_2832" data-name="Group 2832" transform="translate(0 0)">
        <path id="Path_2918" data-name="Path 2918" d="M29.657,17.912c-.035,0-.069.009-.112.009V5.114C29.545,1.759,22.112,0,14.773,0S0,1.759,0,5.114V24.181C0,27.536,7.434,29.3,14.773,29.3c1.052,0,2.113-.052,3.165-.121-.009.164-.026.319-.026.483A11.742,11.742,0,1,0,29.658,17.913Zm-7.356,2.6a38.1,38.1,0,0,1-7.529.7c-7.96,0-13.048-2.009-13.048-3.389V14C3.881,15.4,7.8,16.256,12.031,16.506c.906.052,1.828.086,2.742.086s1.837-.026,2.742-.086c4.226-.259,8.149-1.1,10.306-2.509v3.838a.577.577,0,0,1-.078.259A11.619,11.619,0,0,0,22.3,20.516Zm5.519-9.046c0,1.207-3.889,2.9-10.2,3.3-.906.06-1.854.086-2.846.086s-1.949-.035-2.846-.086c-6.3-.405-10.185-2.087-10.2-3.294V7.632c2.622,1.707,7.848,2.6,13.048,2.6S25.2,9.34,27.82,7.632ZM14.773,1.725c7.968,0,13.048,2.009,13.048,3.389s-5.079,3.4-13.048,3.4S1.725,6.494,1.725,5.115,6.8,1.725,14.773,1.725m0,25.846c-7.96,0-13.048-2.009-13.048-3.389V20.344c2.622,1.708,7.848,2.6,13.048,2.6a43.329,43.329,0,0,0,5.528-.354,11.737,11.737,0,0,0-2.173,4.847c-1.1.087-2.234.138-3.355.138Zm14.885,12.1A10.012,10.012,0,1,1,39.67,29.658,10.025,10.025,0,0,1,29.657,39.671Z" transform="translate(0 0)" fill="#0aa405"/>
      </g>
    </g>
    <path id="Path_2919" data-name="Path 2919" d="M200.31,170.125a2.167,2.167,0,0,1-1.531-3.7l2.5-2.5a2.147,2.147,0,0,1,1.528-.633,2.19,2.19,0,0,1,.462.05l.094.021-3.821,3.821a1.089,1.089,0,0,0,1.54,1.54l3.821-3.821.021.094h0a2.157,2.157,0,0,1-.583,1.991l-2.5,2.5a2.151,2.151,0,0,1-1.531.633Zm2.411-3.956h0a.618.618,0,0,1-.449-.171.644.644,0,0,1-.167-.535,1.062,1.062,0,0,1,.316-.634l3.074-3.074a1.054,1.054,0,0,1,.721-.319.617.617,0,0,1,.448.171.859.859,0,0,1-.148,1.169l-3.074,3.074a1.054,1.054,0,0,1-.721.319Zm3.411-1.864a2.172,2.172,0,0,1-.462-.05l-.094-.02,3.821-3.821a1.089,1.089,0,1,0-1.54-1.54l-3.821,3.821-.02-.094a2.156,2.156,0,0,1,.583-1.991l2.5-2.5a2.166,2.166,0,1,1,3.063,3.062l-2.5,2.5a2.147,2.147,0,0,1-1.529.633Z" transform="translate(935.621 508.6)" fill="#0aa405"/>
  </g>
</svg>
