<svg xmlns="http://www.w3.org/2000/svg" width="21.149" height="17.243" viewBox="0 0 21.149 17.243">
  <g id="noun-logout-1262619" transform="translate(-153.756 -111.754)">
    <path id="Path_2866" data-name="Path 2866" d="M284.6,189.516H272.159a.558.558,0,1,0,0,1.116H284.6l-3.181,3.181a.539.539,0,0,0,0,.781.539.539,0,0,0,.781,0l4.13-4.13V190.3a.527.527,0,0,0,.056-.223.654.654,0,0,0-.056-.223v-.167l-4.13-4.158a.552.552,0,1,0-.781.781Z" transform="translate(-111.735 -69.699)" fill="#333" stroke="#333" stroke-width="0.5"/>
    <path id="Path_2867" data-name="Path 2867" d="M155.819,128.747h10.3a1.81,1.81,0,0,0,1.814-1.814v-2.651a.558.558,0,1,0-1.116,0v2.651a.691.691,0,0,1-.7.7h-10.3a.691.691,0,0,1-.7-.7V113.818a.691.691,0,0,1,.7-.7h10.3a.691.691,0,0,1,.7.7v2.651a.558.558,0,1,0,1.116,0v-2.651A1.81,1.81,0,0,0,166.116,112h-10.3a1.81,1.81,0,0,0-1.814,1.814v13.087a1.816,1.816,0,0,0,1.814,1.842Z" transform="translate(0 0)" fill="#333" stroke="#333" stroke-width="0.5"/>
  </g>
</svg>
