<svg xmlns="http://www.w3.org/2000/svg" width="57" height="52" viewBox="0 0 57 52">
  <g id="Group_2766" data-name="Group 2766" transform="translate(-410 -360.868)">
    <g id="noun-create-5052408" transform="translate(340.762 355.155)">
      <path id="Path_2847" data-name="Path 2847" d="M117.576,28.519a1.172,1.172,0,1,1,2.344,0V47.792a7.979,7.979,0,0,1-7.957,7.957H83.677a7.979,7.979,0,0,1-7.957-7.957V19.506a7.979,7.979,0,0,1,7.957-7.957H102.95a1.172,1.172,0,0,1,0,2.344H83.677a5.63,5.63,0,0,0-5.612,5.612V47.79A5.63,5.63,0,0,0,83.677,53.4h28.285a5.63,5.63,0,0,0,5.612-5.612V28.518ZM111.931,9.9,114.123,7.7a6.817,6.817,0,0,1,9.641,9.641L103.045,38.064a1.172,1.172,0,0,1-.829.343H94.233a1.173,1.173,0,0,1-1.172-1.172V29.252a1.173,1.173,0,0,1,.354-.84L111.93,9.9Zm2.492.824,6.326,6.326,1.358-1.359a4.473,4.473,0,0,0-6.326-6.326l-1.359,1.359Zm4.667,7.983-6.326-6.326L95.406,29.736v6.326h6.326L119.089,18.7Z"/>
    </g>
    <rect id="Rectangle_2148" data-name="Rectangle 2148" width="57" height="52" transform="translate(410 360.868)" fill="none"/>
  </g>
</svg>
