<svg xmlns="http://www.w3.org/2000/svg" width="19.035" height="23.719" viewBox="0 0 19.035 23.719">
  <g id="noun-report-1232261" transform="translate(-170.652 -55.85)">
    <path id="Path_2859" data-name="Path 2859" d="M239.755,257.6h-1.171a.585.585,0,0,0,0,1.171h1.171a.585.585,0,0,0,0-1.171Z" transform="translate(-63.684 -191.061)" fill="#333" stroke="#333" stroke-width="0.3"/>
    <path id="Path_2860" data-name="Path 2860" d="M239.755,324.8h-1.171a.585.585,0,0,0,0,1.171h1.171a.585.585,0,0,0,0-1.171Z" transform="translate(-63.684 -254.748)" fill="#333" stroke="#333" stroke-width="0.3"/>
    <path id="Path_2861" data-name="Path 2861" d="M239.755,392h-1.171a.585.585,0,0,0,0,1.171h1.171a.585.585,0,0,0,0-1.171Z" transform="translate(-63.684 -318.436)" fill="#333" stroke="#333" stroke-width="0.3"/>
    <path id="Path_2862" data-name="Path 2862" d="M323.427,257.6h-6.44a.585.585,0,0,0,0,1.171h6.44a.585.585,0,1,0,0-1.171Z" transform="translate(-137.988 -191.061)" fill="#333" stroke="#333" stroke-width="0.3"/>
    <path id="Path_2863" data-name="Path 2863" d="M323.427,324.8h-6.44a.585.585,0,1,0,0,1.171h6.44a.585.585,0,1,0,0-1.171Z" transform="translate(-137.988 -254.748)" fill="#333" stroke="#333" stroke-width="0.3"/>
    <path id="Path_2864" data-name="Path 2864" d="M323.427,392h-6.44a.585.585,0,0,0,0,1.171h6.44a.585.585,0,1,0,0-1.171Z" transform="translate(-137.988 -318.436)" fill="#333" stroke="#333" stroke-width="0.3"/>
    <path id="Path_2865" data-name="Path 2865" d="M186.61,57.171h-4.792a1.746,1.746,0,0,0-3.3,0h-4.792A2.931,2.931,0,0,0,170.8,60.1V76.492a2.931,2.931,0,0,0,2.927,2.927H186.61c1.649,0,2.927-1.888,2.927-3.513V60.1a2.931,2.931,0,0,0-2.927-2.927Zm-9.953,1.171h1.864a1.746,1.746,0,0,0,3.3,0h1.864v3.513h-7.026Zm11.71,17.564c0,1.022-.853,2.342-1.757,2.342H173.729a1.759,1.759,0,0,1-1.757-1.757V60.1a1.759,1.759,0,0,1,1.757-1.757h1.757v4.1a.586.586,0,0,0,.585.585h8.2a.586.586,0,0,0,.585-.585v-4.1h1.756a1.759,1.759,0,0,1,1.757,1.757Z" fill="#333" stroke="#333" stroke-width="0.3"/>
  </g>
</svg>
