<svg xmlns="http://www.w3.org/2000/svg" width="20.649" height="20.648" viewBox="0 0 20.649 20.648">
  <path id="noun-setting-1495293" d="M90.177,11.761a1.262,1.262,0,0,1-1.248,1.118h-.172a1.388,1.388,0,0,0-.921,2.42,1.277,1.277,0,0,1,.138,1.73A10.186,10.186,0,0,1,86.3,18.68a1.266,1.266,0,0,1-.774.269,1.285,1.285,0,0,1-.938-.41,1.479,1.479,0,0,0-1.075-.448,1.3,1.3,0,0,0-.482.09,1.406,1.406,0,0,0-.86,1.342,1.27,1.27,0,0,1-1.127,1.3,10.286,10.286,0,0,1-2.323-.006,1.259,1.259,0,0,1-1.11-1.331,1.408,1.408,0,0,0-.852-1.364,1.3,1.3,0,0,0-.49-.094,1.485,1.485,0,0,0-1.075.447,1.272,1.272,0,0,1-1.738.138,10.2,10.2,0,0,1-1.626-1.654,1.255,1.255,0,0,1,.138-1.712,1.41,1.41,0,0,0,.353-1.556,1.377,1.377,0,0,0-1.247-.86h-.052a1.353,1.353,0,0,1-1.351-1.123,9.744,9.744,0,0,1,0-2.348,1.249,1.249,0,0,1,1.291-1.118,1.489,1.489,0,0,0,1.4-.848,1.4,1.4,0,0,0-.353-1.568A1.277,1.277,0,0,1,71.869,4.1a10.35,10.35,0,0,1,1.669-1.652,1.3,1.3,0,0,1,.783-.269,1.28,1.28,0,0,1,.938.413,1.487,1.487,0,0,0,1.075.445,1.314,1.314,0,0,0,.482-.086,1.408,1.408,0,0,0,.86-1.345A1.269,1.269,0,0,1,78.8.3a10.32,10.32,0,0,1,2.323.006,1.259,1.259,0,0,1,1.11,1.33A1.4,1.4,0,0,0,83.087,3a1.311,1.311,0,0,0,.49.093,1.488,1.488,0,0,0,1.075-.446,1.266,1.266,0,0,1,1.729-.139,10.107,10.107,0,0,1,1.635,1.653,1.26,1.26,0,0,1-.138,1.721A1.387,1.387,0,0,0,88.835,8.3a1.351,1.351,0,0,1,1.342,1.118,10.221,10.221,0,0,1,0,2.342Zm-1.7-2h0a2.767,2.767,0,0,1-1.927-4.686,8.279,8.279,0,0,0-1.118-1.131,2.884,2.884,0,0,1-1.97.774,2.633,2.633,0,0,1-1.024-.2,2.776,2.776,0,0,1-1.695-2.535,8.616,8.616,0,0,0-1.592,0,2.6,2.6,0,0,1-1.781,2.323,2.511,2.511,0,0,1-.946.359A2.884,2.884,0,0,1,74.458,3.9a8.348,8.348,0,0,0-1.153,1.133,2.776,2.776,0,0,1,.568,3A2.84,2.84,0,0,1,71.344,9.72a9.234,9.234,0,0,0-.008,1.617,2.763,2.763,0,0,1,1.927,4.688,9.331,9.331,0,0,0,1.118,1.132,2.914,2.914,0,0,1,1.97-.774,2.647,2.647,0,0,1,1.032.2,2.771,2.771,0,0,1,1.695,2.534,8.564,8.564,0,0,0,1.592,0,2.794,2.794,0,0,1,1.712-2.489,2.666,2.666,0,0,1,1.007-.193,2.89,2.89,0,0,1,1.97.767,9.081,9.081,0,0,0,1.153-1.133,2.759,2.759,0,0,1-.568-3,2.8,2.8,0,0,1,2.529-1.7,8.4,8.4,0,0,0,0-1.617ZM79.921,14a3.441,3.441,0,1,1,2.43-1.013A3.446,3.446,0,0,1,79.921,14Zm0-5.155a1.719,1.719,0,1,0,1.223.5,1.721,1.721,0,0,0-1.223-.5Z" transform="translate(-69.595 -0.241)" fill="#333" fill-rule="evenodd"/>
</svg>
