<svg xmlns="http://www.w3.org/2000/svg" xmlns:xlink="http://www.w3.org/1999/xlink" width="42.366" height="41.395" viewBox="0 0 42.366 41.395">
  <defs>
    <clipPath id="clip-path">
      <rect id="Rectangle_2228" data-name="Rectangle 2228" width="42.366" height="41.395" fill="none"/>
    </clipPath>
  </defs>
  <g id="Group_2824" data-name="Group 2824" transform="translate(0 -0.001)">
    <g id="Group_2824-2" data-name="Group 2824" transform="translate(0 0.001)" clip-path="url(#clip-path)">
      <path id="Path_2902" data-name="Path 2902" d="M13.08,22.862a9.225,9.225,0,1,0-6.51-2.7,9.224,9.224,0,0,0,6.51,2.7m0-17.539A8.334,8.334,0,1,1,7.2,7.764,8.335,8.335,0,0,1,13.08,5.322" transform="translate(-0.102 -0.117)" fill="#3e64b8"/>
      <path id="Path_2903" data-name="Path 2903" d="M13.08,22.862a9.225,9.225,0,1,0-6.51-2.7A9.224,9.224,0,0,0,13.08,22.862Zm0-17.539A8.334,8.334,0,1,1,7.2,7.764,8.335,8.335,0,0,1,13.08,5.322" transform="translate(-0.102 -0.117)" fill="none" stroke="#3e64b8" stroke-width="1"/>
      <path id="Path_2904" data-name="Path 2904" d="M28.486,29.456l.088-4.319a.5.5,0,0,0-.487-.507.487.487,0,0,0-.507.466v.02l-.059,3.1L23.209,23.62a.5.5,0,1,0-.725.682L26.795,28.9l-3.1-.134a.5.5,0,0,0-.044.993l4.319.188h.021a.5.5,0,0,0,.5-.487Z" transform="translate(-0.589 -0.619)" fill="#3e64b8"/>
      <path id="Path_2905" data-name="Path 2905" d="M28.486,29.456l.088-4.319a.5.5,0,0,0-.487-.507.487.487,0,0,0-.507.466v.02l-.059,3.1L23.209,23.62a.5.5,0,1,0-.725.682L26.795,28.9l-3.1-.134a.5.5,0,0,0-.044.993l4.319.188h.021a.5.5,0,0,0,.5-.487Z" transform="translate(-0.589 -0.619)" fill="none" stroke="#3e64b8" stroke-width="1"/>
      <path id="Path_2906" data-name="Path 2906" d="M29.725,10.512,29.7,17.275a.5.5,0,0,0,.135.342l4.908,5.229-3.1-.132a.5.5,0,0,0-.519.475.5.5,0,0,0,.476.518l4.319.188h.021a.5.5,0,0,0,.5-.487l.088-4.319a.5.5,0,0,0-.487-.507.487.487,0,0,0-.507.466v.02l-.062,3.1L30.7,17.087l.021-6.763a.5.5,0,0,0-.134-.342L21.828.657a.5.5,0,0,0-.724.682Z" transform="translate(-0.552 -0.014)" fill="#3e64b8"/>
      <path id="Path_2907" data-name="Path 2907" d="M29.725,10.512,29.7,17.275a.5.5,0,0,0,.135.342l4.908,5.229-3.1-.132a.5.5,0,0,0-.519.475.5.5,0,0,0,.476.518l4.319.188h.021a.5.5,0,0,0,.5-.487l.088-4.319a.5.5,0,0,0-.487-.507.487.487,0,0,0-.507.466v.02l-.062,3.1L30.7,17.087l.021-6.763a.5.5,0,0,0-.134-.342L21.828.657a.5.5,0,0,0-.724.682Z" transform="translate(-0.552 -0.014)" fill="none" stroke="#3e64b8" stroke-width="1"/>
      <path id="Path_2908" data-name="Path 2908" d="M22.53,33.244a.5.5,0,0,0-.5.487l-.063,3.1L17.062,31.6a.488.488,0,0,0-.333-.156l-6.75-.408L1.36,21.859a.5.5,0,0,0-.724.682l8.753,9.325a.5.5,0,0,0,.333.156l6.751.41,4.771,5.084-3.1-.133a.5.5,0,0,0-.043.993l4.319.187h.021a.487.487,0,0,0,.5-.477v-.01l.088-4.319a.5.5,0,0,0-.47-.513H22.53" transform="translate(-0.013 -0.572)" fill="#3e64b8"/>
      <path id="Path_2909" data-name="Path 2909" d="M22.53,33.244a.5.5,0,0,0-.5.487l-.063,3.1L17.062,31.6a.488.488,0,0,0-.333-.156l-6.75-.408L1.36,21.859a.5.5,0,0,0-.724.682l8.753,9.325a.5.5,0,0,0,.333.156l6.751.41,4.771,5.084-3.1-.133a.5.5,0,0,0-.043.993l4.319.187h.021a.487.487,0,0,0,.5-.477v-.01l.088-4.319a.5.5,0,0,0-.47-.513Z" transform="translate(-0.013 -0.572)" fill="none" stroke="#3e64b8" stroke-width="1"/>
      <path id="Path_2910" data-name="Path 2910" d="M42.458,39.924,36.114,28.278a1.208,1.208,0,0,0-1.673-.353,1.191,1.191,0,0,0-.354.353L27.744,39.924a1.13,1.13,0,0,0,0,1.144,1.115,1.115,0,0,0,.99.572H41.413a1.115,1.115,0,0,0,.989-.572,1.026,1.026,0,0,0,.055-1.144m-13.646.433,6.316-11.53,6.337,11.53Z" transform="translate(-0.727 -0.731)" fill="#3e64b8"/>
      <path id="Path_2911" data-name="Path 2911" d="M42.458,39.924,36.114,28.278a1.208,1.208,0,0,0-1.673-.353,1.191,1.191,0,0,0-.354.353L27.744,39.924a1.13,1.13,0,0,0,0,1.144,1.115,1.115,0,0,0,.99.572H41.413a1.115,1.115,0,0,0,.989-.572A1.026,1.026,0,0,0,42.458,39.924Zm-13.646.433,6.316-11.53,6.337,11.53Z" transform="translate(-0.727 -0.731)" fill="none" stroke="#3e64b8" stroke-width="1"/>
    </g>
  </g>
</svg>
